<?xml version="1.0" encoding="UTF-8" standalone="yes"?>
<svg version="1.1" id="Layer_1" xmlns="http://www.w3.org/2000/svg" xmlns:xlink="http://www.w3.org/1999/xlink" x="0px" y="0px" viewBox="0 0 233.02 315" style="enable-background:new 0 0 233.02 315;" xml:space="preserve">
      <style type="text/css">.st0{fill:#55656B;}</style>
    <g id="color_index_0" fill="#55656b">
              <path d="M229.51,13.67L96.8,304.93h18.4c11.97,0,25.69-3.43,41.17-10.29c15.47-6.86,29.49-18.1,42.05-33.73&#x9;&#x9;c12.55-15.62,20.15-35.54,22.77-59.79h10.08c-0.87,10.51-1.32,23.95-1.32,40.29c0,29.78,1.02,54.31,3.07,73.58&#x9;&#x9;c-21.61-0.87-57.97-1.32-109.07-1.32c-56.94,0-98.26,0.44-123.95,1.32v-8.76L136.67,6.14c0,0,71.63-0.58,92.84-1.23V13.67z&#x9;&#x9; M129.77,14.79c-13.8-0.63-24.82-0.18-33.84,1c-6.71-0.52-13.44-0.59-20.16-0.1c-0.54,0.04-1.06,0.09-1.59,0.14&#x9;&#x9;c-4.79,0.1-9.59,0.36-14.35,0.83c-7.85,0.79-15.65,2.17-23.23,4.36c-1.25,0.36-2.49,0.75-3.73,1.16c-3.08-0.49-5.7-0.55-8.34,0.62&#x9;&#x9;c-2.72,1.21-4.49,3.22-6.3,5.88c-0.09,0.14-0.11,0.31-0.04,0.46c0.07,0.15,0.2,0.26,0.37,0.28c1.27,0.19,2.58,0.36,3.91,0.36&#x9;&#x9;c1.56,0,3.16-0.23,4.76-0.91l0,0c2.94-1.25,4.73-3.51,6.2-5.8c4.47-1.45,9.03-2.62,13.64-3.53c5.19-1.02,10.43-1.7,15.7-2.13&#x9;&#x9;c-2.1,0.41-4.2,0.87-6.27,1.42c-6.15,1.61-12.14,3.84-17.8,6.73c-3.11,1.59-6.1,3.39-8.98,5.38c-0.01,0.01-0.02,0.01-0.04,0.01&#x9;&#x9;c-4.32,2.4-9.13,3.64-14.06,3.75c-1.21,0.02-2.42-0.02-3.64-0.12c-0.93-1.49-1.09-3.3-1.97-4.81c-0.82-1.42-2.47-2.28-4.09-2.33&#x9;&#x9;c-1.62-0.05-3.1,1.2-3.16,2.85C2.69,31.98,4,33.37,5.38,34.12c1.84,1,3.9,1.35,5.97,1.44h0.01c4.05,0.36,8.15,0.1,12.07-0.97&#x9;&#x9;c-2.53,1.57-5.13,3.03-7.79,4.36c-2.4-0.27-4.97-0.36-7.53,0.83c-2.42,1.13-3.93,2.9-5.45,5.22c-0.09,0.14-0.1,0.31-0.04,0.46&#x9;&#x9;s0.2,0.25,0.36,0.28c0.97,0.14,1.96,0.25,2.97,0.25c1.5,0,3.05-0.25,4.6-0.98c2.45-1.17,3.94-3.09,5.22-5&#x9;&#x9;c2.41-1.19,4.77-2.48,7.07-3.87c0.2-0.12,0.39-0.25,0.59-0.36c-0.2,0.17-0.41,0.34-0.62,0.52c-5.1,4.45-9.6,9.57-13.44,15.13&#x9;&#x9;c-0.16,0.23-0.31,0.47-0.47,0.7c-0.33-0.14-0.71-0.15-1.1,0.03c-0.78,0.36-1.04,1.22-0.73,1.99c0.31,0.78,1.08,1.15,1.85,0.78&#x9;&#x9;c0.77-0.36,1.03-1.22,0.73-1.99c-0.01-0.02-0.02-0.04-0.03-0.07c3.51-5.21,7.57-10.03,12.18-14.3c4.66-4.32,9.86-8.04,15.44-11.09&#x9;&#x9;c5.53-3.03,11.41-5.38,17.47-7.11c6.17-1.76,12.51-2.89,18.9-3.47c0.18-0.02,0.38-0.03,0.56-0.04c1.29-0.02,2.57-0.04,3.86-0.05&#x9;&#x9;c-0.52,0.06-1.03,0.12-1.55,0.19c-4.86,0.64-9.68,1.61-14.37,3.01c-4.54,1.36-8.96,3.13-13.16,5.32c-4.3,2.21-8.36,4.89-12.15,7.91&#x9;&#x9;c-1.38,1.1-2.71,2.24-4.01,3.42c-0.01,0-0.02-0.01-0.02,0c-3.44,0.31-7,0.63-9.36,3.67c-2.29,2.95-1.83,6.32-1.39,9.57l0.03,0.23&#x9;&#x9;c0.03,0.24,0.26,0.41,0.5,0.41c0.02,0,0.04,0,0.07-0.01c3.39-0.45,6.6-0.87,8.93-3.76c2.31-2.86,2.08-6.35,1.78-9.25&#x9;&#x9;c0.87-0.79,1.75-1.57,2.65-2.33c0.54-0.45,1.08-0.89,1.62-1.32c0.1,0.36,0.36,0.66,0.79,0.71c0.62,0.08,1.04-0.4,1.12-0.98&#x9;&#x9;c0.05-0.37-0.04-0.74-0.28-0.98c2.76-2.07,5.64-3.95,8.66-5.62c4.09-2.26,8.39-4.1,12.83-5.54c4.59-1.49,9.31-2.55,14.08-3.26&#x9;&#x9;c3.38-0.5,6.78-0.83,10.19-1.03c-4.9,0.94-9.74,2.13-14.48,3.67c-5.92,1.91-11.7,4.35-17.1,7.47c-0.76,0.44-1.51,0.89-2.26,1.37&#x9;&#x9;c-2.41,0.41-4.93,1.06-7.2,2.81c-2.34,1.82-3.45,4.2-4.29,6.52c-0.06,0.15-0.03,0.33,0.07,0.46c0.09,0.12,0.23,0.18,0.38,0.18&#x9;&#x9;c0.02,0,0.04,0,0.06-0.01c2.48-0.31,5.09-0.86,7.38-2.76c1.88-1.56,3.17-3.49,4.3-6.45c3-1.87,6.13-3.52,9.35-4.96&#x9;&#x9;c5.42-2.43,11.09-4.29,16.85-5.73c-6.93,2.32-12.21,5.19-16.81,8.19c-0.78,0.5-1.54,1.02-2.3,1.54c0.05-0.1,0.09-0.21,0.09-0.33&#x9;&#x9;c0.04-0.68-0.68-0.95-1.26-0.94c-0.58,0.01-1.3,0.27-1.34,0.94c-0.03,0.66,0.65,0.95,1.24,0.95c0.14,0,0.29-0.01,0.43-0.04&#x9;&#x9;c-4.55,3.19-8.85,6.66-12.83,10.35c-0.04,0.02-0.07,0.02-0.1,0.05c-7.44,5.62-15.13,10.92-23.1,15.77&#x9;&#x9;c-2.21,1.35-4.45,2.66-6.72,3.94c-1.66-0.55-2.92-1.87-4.53-2.54c-1.84-0.76-4-0.22-5.49,1.04c-1.31,1.1-1.57,3.04-0.49,4.39&#x9;&#x9;c1.24,1.54,3.48,1.53,5.23,1.09c2.11-0.54,3.95-1.69,5.65-3.01c0.02-0.01,0.02-0.03,0.04-0.05c5.46-3.08,10.79-6.39,16.01-9.87&#x9;&#x9;c-1.05,0.96-2.07,1.93-3.08,2.93c-4.45,4.39-8.55,9.13-12.46,14c-0.19,0.24-0.38,0.48-0.57,0.72l-0.05,0.01&#x9;&#x9;c-2.92,0.28-5.67,0.55-7.79,2.95c-2.2,2.5-1.77,5.55-1.38,8.24l0.07,0.47l0.47-0.04c2.77-0.21,5.92-0.45,8.03-3.01&#x9;&#x9;c1.97-2.39,1.61-5.13,1.25-7.77c1.95-2.44,3.94-4.85,5.99-7.21c4-4.59,8.26-8.96,12.88-12.93c-0.88,0.9-1.74,1.82-2.58,2.75&#x9;&#x9;c-3.14,3.48-6.01,7.2-8.58,11.11c-1.4,2.13-2.71,4.31-3.94,6.54c-0.66-0.07-1.24,0.32-1.45,1c-0.24,0.76,0.12,1.51,0.9,1.75&#x9;&#x9;c0.78,0.23,1.51-0.15,1.75-0.93c0.16-0.52,0.04-1.02-0.29-1.36c2.21-3.97,4.66-7.81,7.4-11.44c2.29-3.04,4.81-5.91,7.46-8.64&#x9;&#x9;c-3.25,3.89-6.14,7.92-8.6,12.04c-1.63,2.74-3.15,5.64-4.57,8.68c-0.01,0.01-0.01,0.01-0.01,0.01c-2.46,3.91-5.32,7.59-8.66,10.79&#x9;&#x9;c-2.77,0.15-5.06,0.57-7.2,2.12c-2.37,1.72-3.48,4.15-4.34,6.31c-0.06,0.15-0.04,0.32,0.06,0.45s0.23,0.2,0.39,0.2&#x9;&#x9;c0.01,0,0.01,0,0.02,0c2.79-0.09,5.08-0.49,7.25-2.1c2.12-1.58,3.22-3.7,4.2-5.95c1.61-1.51,3.11-3.13,4.52-4.84&#x9;&#x9;c-1.8,3.18-3.72,6.28-5.76,9.31c-0.68,1.02-1.37,2.01-2.07,3.01c-0.02,0.01-0.04,0-0.06,0.01c-1.48,0.5-2.89,1.17-4.1,2.17&#x9;&#x9;c-1.14,0.95-2.15,2.26-2.16,3.81c-0.01,1.43,1.1,2.83,2.61,2.79c1.43-0.04,2.79-1.31,3.35-2.55c0.74-1.62,0.41-3.51,0.85-5.22&#x9;&#x9;c0.02-0.02,0.05-0.04,0.07-0.06c2.65-3.75,5.16-7.61,7.45-11.59c-1.6,4.37-3.02,9.03-4.27,14c-0.03,0.02-0.07,0.04-0.1,0.07&#x9;&#x9;c-3.13,3.31-5.21,7.34-6.32,11.75c-0.18,0.72-0.33,1.45-0.47,2.18c-0.17,0.04-0.33,0.08-0.49,0.15c-1.16,0.5-1.68,1.7-1.19,2.88&#x9;&#x9;c0.49,1.18,1.67,1.58,2.81,1.08c1.14-0.5,1.69-1.69,1.21-2.87c-0.26-0.64-0.74-1.05-1.3-1.21c0.73-3.64,1.94-7.16,4.05-10.25&#x9;&#x9;c0.41-0.6,0.85-1.16,1.3-1.72c-0.94,3.94-1.77,8.07-2.5,12.39c-0.44,0.3-0.63,0.83-0.41,1.35c0.24,0.58,0.84,0.8,1.42,0.54&#x9;&#x9;c0.57-0.26,0.84-0.86,0.59-1.45c-0.12-0.28-0.31-0.47-0.55-0.57C16,89.61,20.99,74.82,28.1,62.89c4.58-7.68,10.71-15.1,17.9-21.78&#x9;&#x9;c0.12,0.31,0.38,0.54,0.78,0.57c0.63,0.04,1.03-0.49,1.11-1.08c0.05-0.37-0.05-0.73-0.28-0.95c4.4-3.94,9.17-7.6,14.21-10.87&#x9;&#x9;c7.81-5.07,17.53-9.79,34.2-11.98c0.01,0,0.02,0,0.02,0c0.09,0.01,0.16-0.01,0.23-0.04c8.93-1.16,19.83-1.59,33.48-0.97&#x9;&#x9;c0.3,0.01,0.52-0.2,0.53-0.48C130.28,15.03,130.05,14.8,129.77,14.79z M26.83,27.97L26.83,27.97c-2.47,1.05-4.98,0.92-7.38,0.6&#x9;&#x9;c1.58-2.21,3.16-3.89,5.46-4.91c1.88-0.83,3.78-0.98,5.89-0.79c-2.36,0.82-4.69,1.72-6.99,2.7c-0.25,0.11-0.3,0.47-0.18,0.69&#x9;&#x9;c0.15,0.26,0.44,0.29,0.69,0.18c2.49-1.06,5.03-2.02,7.6-2.89C30.66,25.34,29.11,27,26.83,27.97z M3.83,30.93&#x9;&#x9;c-0.36-1.32,0.68-2.51,2.02-2.49c1.36,0.02,2.73,0.78,3.36,1.99c0.68,1.3,0.92,2.77,1.56,4.07c-1.35-0.09-2.69-0.32-3.96-0.83&#x9;&#x9;C5.56,33.16,4.21,32.32,3.83,30.93z M10.15,44.12c-2.11,1.01-4.25,1-6.27,0.75c1.29-1.88,2.63-3.32,4.63-4.25&#x9;&#x9;c1.76-0.82,3.51-1,5.46-0.88c-0.44,0.21-0.87,0.41-1.32,0.62c-1.35,0.61-2.71,1.19-4.09,1.73c-0.6,0.23-0.34,1.21,0.27,0.97&#x9;&#x9;c1.74-0.69,3.46-1.43,5.16-2.22C12.88,42.28,11.71,43.37,10.15,44.12z M30.82,46.18c-2,2.47-4.83,2.95-7.88,3.35&#x9;&#x9;c-0.42-3.11-0.76-6.05,1.23-8.62c1.85-2.38,4.65-2.9,7.49-3.2c-2.15,2.02-4.2,4.14-6.15,6.34c-0.46,0.52-0.92,1.05-1.37,1.58&#x9;&#x9;c-0.42,0.49,0.29,1.21,0.71,0.71c2.39-2.81,4.92-5.49,7.6-8C32.72,41.4,32.62,43.96,30.82,46.18z M46.96,36.15&#x9;&#x9;c-1.87,1.54-4.01,2.12-6.1,2.44c0.86-2.17,1.87-3.93,3.7-5.34c1.38-1.06,2.88-1.69,4.4-2.11c-1.4,0.96-2.77,1.97-4.09,3.04&#x9;&#x9;c-0.5,0.41,0.22,1.12,0.71,0.71c1.57-1.26,3.21-2.44,4.89-3.54C49.51,33.45,48.43,34.94,46.96,36.15z M5.98,62.81&#x9;&#x9;c-0.54-0.41-0.86-1.06-0.85-1.73c0-0.71,0.36-1.32,0.9-1.76c1.32-1.09,3.17-1.46,4.73-0.71c1.34,0.64,2.44,1.64,3.78,2.24&#x9;&#x9;c-1.14,0.84-2.37,1.59-3.72,2.07C9.34,63.43,7.36,63.85,5.98,62.81z M14.26,76.83c-1.72,2.1-4.3,2.41-6.85,2.61&#x9;&#x9;c-0.39-2.86-0.46-5.07,1.21-6.96c1.63-1.85,3.82-2.27,6.21-2.52c-1.79,2.26-3.56,4.55-5.3,6.85c-0.39,0.52,0.49,1.02,0.87,0.51&#x9;&#x9;c1.66-2.18,3.33-4.35,5.03-6.5C15.68,72.98,15.73,75.03,14.26,76.83z M9.6,88.06c-1.77,1.32-3.69,1.75-5.97,1.88&#x9;&#x9;c0.94-2.24,1.95-3.92,3.73-5.21c1.66-1.21,3.41-1.66,5.54-1.85c-0.54,0.48-1.08,0.95-1.64,1.4c-1.31,1.06-2.69,2.04-4.12,2.93&#x9;&#x9;c-0.55,0.34-0.04,1.22,0.51,0.87C9.38,87,11,85.8,12.55,84.49C11.81,85.87,10.93,87.07,9.6,88.06z M8.11,97.97&#x9;&#x9;c-0.58,0.3-1.14,0.28-1.69-0.09c-0.44-0.3-0.68-0.83-0.71-1.36c-0.07-1.29,0.82-2.39,1.74-3.18c0.91-0.79,1.97-1.34,3.09-1.78&#x9;&#x9;c-0.23,1.14-0.2,2.33-0.38,3.48C9.96,96.33,9.28,97.38,8.11,97.97z M36.37,43.83c-0.55-0.12-0.73-0.57-0.46-1.05&#x9;&#x9;c0.28-0.49,0.88-0.79,1.44-0.69c0.56,0.1,0.73,0.56,0.46,1.05C37.53,43.62,36.92,43.94,36.37,43.83z M7.24,68.73&#x9;&#x9;c-0.72-0.09-0.97-0.64-0.62-1.26c0.36-0.62,1.13-1.06,1.84-1c0.72,0.07,0.94,0.63,0.61,1.26C8.74,68.36,7.96,68.82,7.24,68.73z&#x9;&#x9; M3.27,38.09c-0.16-0.56,0.16-1.06,0.71-1.23c0.55-0.17,1.11,0.16,1.28,0.71c0.17,0.55-0.1,1.16-0.68,1.28&#x9;&#x9;C4.01,38.97,3.43,38.64,3.27,38.09z M3.89,24.08c-0.15-0.56,0.15-1.08,0.7-1.26c0.55-0.18,1.1,0.17,1.27,0.73&#x9;&#x9;c0.17,0.55-0.09,1.18-0.67,1.3C4.6,24.99,4.05,24.64,3.89,24.08z M42.32,28.83c-0.58,0.01-1.23-0.3-1.25-0.95&#x9;&#x9;c-0.01-0.65,0.61-0.94,1.19-0.94c0.58,0.01,1.24,0.29,1.26,0.94C43.54,28.53,42.9,28.82,42.32,28.83z M5.97,106.05&#x9;&#x9;c-0.59,0.26-1.21,0.03-1.46-0.57c-0.25-0.6,0-1.22,0.59-1.5s1.21-0.03,1.46,0.57C6.82,105.16,6.56,105.79,5.97,106.05z M14.3,65.14&#x9;&#x9;c-0.15-0.44,0.15-0.86,0.54-1.04c0.38-0.18,0.82-0.14,0.97,0.3s-0.15,0.86-0.53,1.05C14.9,65.65,14.45,65.58,14.3,65.14z&#x9;&#x9; M16.33,53.31c-0.15-0.45,0.15-0.88,0.55-1.06c0.4-0.18,0.86-0.12,1,0.33c0.14,0.45-0.15,0.87-0.55,1.08&#x9;&#x9;C16.93,53.85,16.48,53.76,16.33,53.31z M9.31,59.6c0.12,0.44-0.09,0.87-0.52,1.03c-0.42,0.16-0.81-0.04-0.92-0.47&#x9;&#x9;s0.1-0.86,0.52-1.03C8.81,58.96,9.2,59.17,9.31,59.6z M7.82,30.48c-0.16,0.38-0.55,0.56-0.94,0.42c-0.39-0.14-0.54-0.52-0.38-0.89&#x9;&#x9;c0.16-0.38,0.55-0.56,0.94-0.42C7.83,29.72,7.98,30.11,7.82,30.48z M9,95.82c0.2,0.3,0.15,0.67-0.14,0.89&#x9;&#x9;c-0.29,0.22-0.65,0.14-0.85-0.15c-0.2-0.3-0.15-0.67,0.14-0.89C8.44,95.45,8.79,95.53,9,95.82z M131.48,12.91&#x9;&#x9;c-0.96-0.06-1.91-0.1-2.87-0.13c-7.94-0.24-15.86,0.37-23.78,0.81c-3.91,0.22-7.83,0.4-11.75,0.42c-3.08,0.01-6.15-0.14-9.23-0.26&#x9;&#x9;c0.03,0.05,0.06,0.1,0.07,0.17c0.17,0.6-0.58,0.9-1.08,1c-0.5,0.09-1.32,0.07-1.5-0.55c-0.08-0.3,0.04-0.52,0.25-0.69&#x9;&#x9;c-0.16-0.01-0.32-0.01-0.48-0.01c-8.23-0.19-16.47,0.09-24.67,0.73c-8.21,0.64-16.38,1.66-24.51,2.97&#x9;&#x9;c-2.81,0.46-5.6,0.98-8.42,1.42c-0.02,0.01-0.02,0.03-0.04,0.04c-3.34,2.37-6.85,4.46-10.62,6.07c-0.01,0.14-0.03,0.28-0.08,0.42&#x9;&#x9;c-0.27,0.77-1.03,1.21-1.83,0.99c-0.8-0.22-1.14-0.97-0.87-1.74s1.03-1.21,1.83-0.99c0.26,0.07,0.47,0.2,0.63,0.37&#x9;&#x9;c3.08-1.32,6-2.99,8.79-4.85c-0.28,0.04-0.57,0.09-0.85,0.12c-3.18,0.39-6.37,0.47-9.55,0.2c-0.15,0.51-0.54,0.94-1.1,1.16&#x9;&#x9;c-0.95,0.38-1.89-0.03-2.26-0.99c-0.36-0.96,0.07-1.94,1.02-2.31c0.95-0.38,1.93,0.02,2.29,0.99c0.02,0.05,0.02,0.1,0.04,0.15&#x9;&#x9;c0.5,0.05,1.01,0.09,1.51,0.11c1.8,0.1,3.59,0.07,5.38-0.07c-0.89-0.73-1.85-1.32-2.87-1.84c-0.12,0.11-0.27,0.21-0.44,0.28&#x9;&#x9;c-0.75,0.31-1.5-0.01-1.8-0.76c-0.3-0.76,0.04-1.53,0.79-1.84c0.75-0.31,1.5,0,1.8,0.76c0.09,0.22,0.12,0.45,0.1,0.66&#x9;&#x9;c1.38,0.7,2.68,1.55,3.82,2.63c1.34-0.13,2.68-0.31,4.02-0.52c3.97-0.63,7.93-1.36,11.91-1.96c8.09-1.22,16.23-2.13,24.39-2.68&#x9;&#x9;c8.21-0.55,16.46-0.71,24.68-0.41c3.93,0.15,7.84,0.3,11.78,0.21c3.94-0.09,7.89-0.31,11.83-0.55c7.88-0.46,15.79-0.98,23.68-0.51&#x9;&#x9;C132.13,11.94,132.13,12.95,131.48,12.91z M132.64,9.88c-7.9-0.81-15.84-1.17-23.78-1.29c-0.5-0.01-1-0.01-1.5-0.01&#x9;&#x9;c-0.02-0.01-0.04-0.02-0.06-0.02c-8.2-0.94-16.43-1.61-24.67-2c-8.98-0.43-17.97-0.78-26.95-1.11c-4.6-0.18-9.22-0.2-13.82-0.29&#x9;&#x9;c-7.03-0.13-14.05-0.27-21.07-0.5C15.18,4.48,9.54,4.36,3.96,3.75C3.92,3.74,3.88,3.74,3.84,3.74C3.49,3.38,2.96,3.18,2.45,3.13&#x9;&#x9;c-0.82-0.1-1.7,0.21-1.7,1.13s0.89,1.37,1.7,1.46c0.76,0.08,1.59-0.16,1.7-0.94c1.59,0.17,3.2,0.28,4.81,0.38&#x9;&#x9;c3.07,0.19,6.14,0.31,9.21,0.42c4.96,0.18,9.91,0.31,14.87,0.41c-0.67,0.33-1.07,0.98-0.87,1.78c0.25,1,1.18,1.33,2.12,1.16&#x9;&#x9;c0.78-0.14,1.48-0.61,1.58-1.35c2.84,0.47,5.59,1.38,8.28,2.43c-3.74,0.07-7.48,0.11-11.22,0.1c-5.11-0.01-10.22-0.09-15.33-0.31&#x9;&#x9;c-1.87-1.86-4.03-3.83-7.29-3.94C7.01,5.75,4.64,7.45,2.1,9.52L1.7,9.85l0.36,0.36c2.09,2.09,4.42,4.13,7.8,4.21&#x9;&#x9;c0.07,0,0.15,0,0.22,0c3.25,0,5.59-1.8,7.84-3.54l0.06-0.04c3.95,0.17,7.91,0.25,11.86,0.28c1.18,0.01,2.36,0.01,3.54,0.01&#x9;&#x9;c-2.13,0.55-4.31,0.94-6.5,1.26c-0.28-0.34-0.78-0.41-1.22-0.26c-0.55,0.18-0.94,0.71-0.72,1.29c0.22,0.58,0.83,0.71,1.37,0.51&#x9;&#x9;c0.29-0.1,0.54-0.3,0.68-0.54c3.36-0.48,6.69-1.12,9.89-2.26c3.25-0.02,6.49-0.07,9.73-0.14c0.02,0,0.05,0.01,0.07,0&#x9;&#x9;c2.77-0.06,5.55-0.13,8.32-0.21c1.24-0.04,2.47-0.08,3.7-0.12c-0.38,0.22-0.63,0.57-0.46,1.04c0.23,0.67,1.04,0.73,1.62,0.59&#x9;&#x9;c0.58-0.14,1.31-0.55,1.08-1.22c-0.08-0.22-0.23-0.37-0.41-0.47c6.71-0.22,13.41-0.46,20.13-0.66c4.82-0.14,9.65-0.26,14.48-0.32&#x9;&#x9;c-0.09,0.08-0.16,0.17-0.21,0.3c-0.25,0.63,0.28,1.16,0.84,1.37c0.55,0.21,1.34,0.24,1.58-0.39c0.22-0.57-0.24-1.03-0.73-1.29&#x9;&#x9;c3.05-0.03,6.1-0.05,9.16-0.03c8,0.06,16.02,0.33,23.99,1.05c0.95,0.09,1.89,0.18,2.85,0.28C133.28,10.96,133.28,9.94,132.64,9.88z&#x9;&#x9; M9.89,13.5c-2.86-0.07-4.87-1.69-6.8-3.57c2.24-1.8,4.37-3.21,7.19-3.12c2.41,0.09,4.09,1.24,5.92,2.95&#x9;&#x9;c-2.52-0.12-5.03-0.27-7.55-0.47C7.69,9.21,6.72,9.13,5.76,9.05c-0.65-0.06-0.65,0.95,0,1.01c3.59,0.33,7.19,0.55,10.79,0.73&#x9;&#x9;C14.55,12.29,12.55,13.57,9.89,13.5z M68.13,9.34c0.01-0.02,0.02-0.03,0.04-0.05c0.33-0.65-0.34-1.14-0.92-1.34&#x9;&#x9;c-0.58-0.2-1.48-0.26-1.83,0.39c-0.23,0.44-0.01,0.82,0.34,1.07c-2.52,0.09-5.05,0.17-7.57,0.25C54.36,9.8,50.53,9.9,46.7,9.98&#x9;&#x9;c-3.57-1.5-7.24-2.84-11.07-3.43c-0.14-0.21-0.32-0.38-0.54-0.5c1.42,0.03,2.82,0.06,4.24,0.09c3.24,0.06,6.48,0.12,9.71,0.18&#x9;&#x9;c-0.09,0.15-0.1,0.34-0.02,0.55c0.22,0.56,0.9,0.62,1.41,0.5c0.49-0.12,0.98-0.47,0.83-1c1.15,0.02,2.3,0.04,3.45,0.07&#x9;&#x9;c3.89,0.11,7.79,0.33,11.68,0.49c4.42,0.17,8.85,0.33,13.26,0.52C85.61,7.7,91.56,8.06,97.5,8.58c-4.55,0.04-9.11,0.14-13.66,0.26&#x9;&#x9;C78.61,8.98,73.37,9.16,68.13,9.34z M133.79,7.78c-3.69-0.1-7.37-0.3-11.04-0.58c-6.5-0.5-12.98-1.26-19.44-2.14&#x9;&#x9;c-1.38-0.19-2.77-0.39-4.15-0.58c-0.04,0.02-0.08,0.05-0.14,0.06c-3.24,0.71-6.52,0.84-9.81,0.88c-0.17,0.22-0.44,0.38-0.73,0.44&#x9;&#x9;c-0.56,0.13-1.16-0.07-1.29-0.68c-0.14-0.6,0.3-1.08,0.87-1.19C88.52,3.9,89,4.03,89.24,4.4c2.28-0.03,4.55-0.1,6.81-0.38&#x9;&#x9;c-3.3-0.49-6.61-1-9.91-1.51c-0.3,0.36-0.78,0.6-1.29,0.68c-0.95,0.17-1.88-0.17-2.12-1.16s0.43-1.77,1.4-1.97&#x9;&#x9;c0.97-0.21,2.07,0.23,2.29,1.27c0.01,0.03,0.01,0.06,0.01,0.09c2.9,0.45,5.79,0.9,8.69,1.34c4.24,0.63,8.48,1.23,12.74,1.77&#x9;&#x9;c-0.26-0.74,0.07-1.48,0.8-1.78c0.75-0.31,1.5,0,1.8,0.76c0.18,0.47,0.12,0.95-0.13,1.33c1.35,0.16,2.69,0.32,4.04,0.46&#x9;&#x9;c6.45,0.7,12.93,1.19,19.42,1.37C134.51,6.66,134.51,7.8,133.79,7.78z"/>
          </g>
  </svg>